<?xml version="1.0" encoding="UTF-8" standalone="no"?>
<!-- Created with Inkscape (http://www.inkscape.org/) -->

<svg
   width="33.866665mm"
   height="33.866665mm"
   viewBox="0 0 33.866664 33.866665"
   version="1.1"
   id="svg1"
   xml:space="preserve"
   xmlns:xlink="http://www.w3.org/1999/xlink"
   xmlns="http://www.w3.org/2000/svg"
   xmlns:svg="http://www.w3.org/2000/svg"><defs
     id="defs1"><linearGradient
       id="linearGradient8"><stop
         style="stop-color:#ffffff;stop-opacity:1;"
         offset="0"
         id="stop8" /><stop
         style="stop-color:#ffffff;stop-opacity:0;"
         offset="1"
         id="stop9" /></linearGradient><linearGradient
       id="linearGradient3"><stop
         style="stop-color:#f2163e;stop-opacity:1;"
         offset="0"
         id="stop3" /><stop
         style="stop-color:#f2165f;stop-opacity:1;"
         offset="1"
         id="stop4" /></linearGradient><linearGradient
       id="linearGradient141"><stop
         style="stop-color:#0063a6;stop-opacity:1;"
         offset="0"
         id="stop141" /><stop
         style="stop-color:#07d9c4;stop-opacity:1;"
         offset="1"
         id="stop142" /></linearGradient><linearGradient
       id="linearGradient23"><stop
         style="stop-color:#3bbcd9;stop-opacity:1;"
         offset="0"
         id="stop22" /><stop
         style="stop-color:#07d9c4;stop-opacity:1;"
         offset="1"
         id="stop23" /></linearGradient><clipPath
       clipPathUnits="userSpaceOnUse"
       id="clipPath1"><path
         style="fill:none;stroke:#ff0000;stroke-width:0.264583;stroke-linecap:butt;stroke-linejoin:miter;stroke-dasharray:none;stroke-opacity:1"
         d="m 0.629773,3.22111 c -0.30862,9.59124 -0.380656,15.73307 9.316133,20.49832 9.5411,-4.46322 9.44499,-10.95153 9.31446,-20.4762501 C 14.379996,3.25218 9.8363659,0.63736 9.8363659,0.63736 c 0,0 -3.3315399,2.3869299 -9.2065929,2.58375 z"
         id="path2" /></clipPath><linearGradient
       xlink:href="#linearGradient23"
       id="linearGradient22"
       x1="99.945702"
       y1="161.51405"
       x2="114.81397"
       y2="136.88167"
       gradientUnits="userSpaceOnUse"
       gradientTransform="matrix(3.7795276,0,0,3.7795276,-361.6402,-478.2126)" /><linearGradient
       xlink:href="#linearGradient141"
       id="linearGradient142"
       x1="-18.096495"
       y1="81.973572"
       x2="61.523033"
       y2="81.973572"
       gradientUnits="userSpaceOnUse" /><clipPath
       clipPathUnits="userSpaceOnUse"
       id="clipPath2"><path
         style="fill:none;stroke:#ff0000;stroke-width:3;stroke-linecap:butt;stroke-linejoin:miter;stroke-dasharray:none;stroke-opacity:1"
         d="m 0.121242,49.272861 c -1.166437,36.250356 -1.4387,59.463569 35.210582,77.473969 36.060851,-16.86887 35.6976,-41.391613 35.204259,-77.390555 -18.445493,0.03402 -35.618268,-9.848769 -35.618268,-9.848769 0,0 -12.591648,9.021468 -34.796573,9.765355 z"
         id="path3" /></clipPath><clipPath
       clipPathUnits="userSpaceOnUse"
       id="clipPath1-9"><path
         style="fill:none;stroke:#ff0000;stroke-width:0.264583;stroke-linecap:butt;stroke-linejoin:miter;stroke-dasharray:none;stroke-opacity:1"
         d="m 0.629773,3.22111 c -0.30862,9.59124 -0.380656,15.73307 9.316133,20.49832 9.5411,-4.46322 9.44499,-10.95153 9.31446,-20.4762501 C 14.379996,3.25218 9.8363659,0.63736 9.8363659,0.63736 c 0,0 -3.3315399,2.3869299 -9.2065929,2.58375 z"
         id="path2-1" /></clipPath><clipPath
       clipPathUnits="userSpaceOnUse"
       id="clipPath2-4"><path
         style="fill:none;stroke:#ff0000;stroke-width:3;stroke-linecap:butt;stroke-linejoin:miter;stroke-dasharray:none;stroke-opacity:1"
         d="m 0.121242,49.272861 c -1.166437,36.250356 -1.4387,59.463569 35.210582,77.473969 36.060851,-16.86887 35.6976,-41.391613 35.204259,-77.390555 -18.445493,0.03402 -35.618268,-9.848769 -35.618268,-9.848769 0,0 -12.591648,9.021468 -34.796573,9.765355 z"
         id="path3-9" /></clipPath><clipPath
       clipPathUnits="userSpaceOnUse"
       id="clipPath2-8"><path
         style="fill:none;stroke:#ff0000;stroke-width:3;stroke-linecap:butt;stroke-linejoin:miter;stroke-dasharray:none;stroke-opacity:1"
         d="m 0.121242,49.272861 c -1.166437,36.250356 -1.4387,59.463569 35.210582,77.473969 36.060851,-16.86887 35.6976,-41.391613 35.204259,-77.390555 -18.445493,0.03402 -35.618268,-9.848769 -35.618268,-9.848769 0,0 -12.591648,9.021468 -34.796573,9.765355 z"
         id="path3-3" /></clipPath><linearGradient
       xlink:href="#linearGradient141"
       id="linearGradient142-8"
       x1="-18.096495"
       y1="81.973572"
       x2="61.523033"
       y2="81.973572"
       gradientUnits="userSpaceOnUse"
       gradientTransform="matrix(1.0111096,0,0,1.0111096,274.68364,-276.2151)" /><linearGradient
       xlink:href="#linearGradient23"
       id="linearGradient7"
       gradientUnits="userSpaceOnUse"
       gradientTransform="matrix(3.8215166,0,0,3.8215166,-90.974238,-759.74045)"
       x1="99.945702"
       y1="161.51405"
       x2="114.81397"
       y2="136.88167" /><filter
       style="color-interpolation-filters:sRGB;"
       id="filter13"
       x="-0.15044908"
       y="-0.12908902"
       width="1.3265855"
       height="1.2547079"><feGaussianBlur
         stdDeviation="5"
         result="fbSourceGraphic"
         id="feGaussianBlur12" /><feGaussianBlur
         stdDeviation="0.01"
         in="SourceGraphic"
         result="result1"
         id="feGaussianBlur13" /><feComposite
         in2="result1"
         operator="arithmetic"
         in="fbSourceGraphic"
         k2="0.5"
         k3="0.5"
         result="result2"
         id="feComposite13" /><feBlend
         in2="fbSourceGraphic"
         mode="normal"
         result="result3"
         id="feBlend13" /></filter><clipPath
       clipPathUnits="userSpaceOnUse"
       id="clipPath2-4-1"><path
         style="fill:none;stroke:#ff0000;stroke-width:3;stroke-linecap:butt;stroke-linejoin:miter;stroke-dasharray:none;stroke-opacity:1"
         d="m 0.121242,49.272861 c -1.166437,36.250356 -1.4387,59.463569 35.210582,77.473969 36.060851,-16.86887 35.6976,-41.391613 35.204259,-77.390555 -18.445493,0.03402 -35.618268,-9.848769 -35.618268,-9.848769 0,0 -12.591648,9.021468 -34.796573,9.765355 z"
         id="path3-9-2" /></clipPath><linearGradient
       xlink:href="#linearGradient141"
       id="linearGradient13"
       gradientUnits="userSpaceOnUse"
       x1="-18.096495"
       y1="81.973572"
       x2="61.523033"
       y2="81.973572"
       gradientTransform="translate(11.166684,-362.09857)" /><linearGradient
       xlink:href="#linearGradient23"
       id="linearGradient14"
       gradientUnits="userSpaceOnUse"
       gradientTransform="matrix(3.7795276,0,0,3.7795276,-350.47352,-840.31117)"
       x1="99.945702"
       y1="161.51405"
       x2="114.81397"
       y2="136.88167" /><clipPath
       clipPathUnits="userSpaceOnUse"
       id="clipPath2-4-1-2"><path
         style="fill:none;stroke:#ff0000;stroke-width:3;stroke-linecap:butt;stroke-linejoin:miter;stroke-dasharray:none;stroke-opacity:1"
         d="m 0.121242,49.272861 c -1.166437,36.250356 -1.4387,59.463569 35.210582,77.473969 36.060851,-16.86887 35.6976,-41.391613 35.204259,-77.390555 -18.445493,0.03402 -35.618268,-9.848769 -35.618268,-9.848769 0,0 -12.591648,9.021468 -34.796573,9.765355 z"
         id="path3-9-2-6" /></clipPath><filter
       style="color-interpolation-filters:sRGB;"
       id="filter16"
       x="-0.22157376"
       y="-0.20485771"
       width="1.4814297"
       height="1.4061927"><feGaussianBlur
         stdDeviation="5"
         result="fbSourceGraphic"
         id="feGaussianBlur15" /><feGaussianBlur
         stdDeviation="0.01"
         in="SourceGraphic"
         result="result1"
         id="feGaussianBlur16" /><feComposite
         in2="result1"
         operator="arithmetic"
         in="fbSourceGraphic"
         k2="0.5"
         k3="0.5"
         result="result2"
         id="feComposite16" /><feBlend
         in2="fbSourceGraphic"
         mode="normal"
         result="result3"
         id="feBlend16" /></filter><clipPath
       clipPathUnits="userSpaceOnUse"
       id="clipPath2-4-6"><path
         style="fill:none;stroke:#ff0000;stroke-width:3;stroke-linecap:butt;stroke-linejoin:miter;stroke-dasharray:none;stroke-opacity:1"
         d="m 0.121242,49.272861 c -1.166437,36.250356 -1.4387,59.463569 35.210582,77.473969 36.060851,-16.86887 35.6976,-41.391613 35.204259,-77.390555 -18.445493,0.03402 -35.618268,-9.848769 -35.618268,-9.848769 0,0 -12.591648,9.021468 -34.796573,9.765355 z"
         id="path3-9-0" /></clipPath><clipPath
       clipPathUnits="userSpaceOnUse"
       id="clipPath2-4-6-9"><path
         style="fill:none;stroke:#ff0000;stroke-width:3;stroke-linecap:butt;stroke-linejoin:miter;stroke-dasharray:none;stroke-opacity:1"
         d="m 0.121242,49.272861 c -1.166437,36.250356 -1.4387,59.463569 35.210582,77.473969 36.060851,-16.86887 35.6976,-41.391613 35.204259,-77.390555 -18.445493,0.03402 -35.618268,-9.848769 -35.618268,-9.848769 0,0 -12.591648,9.021468 -34.796573,9.765355 z"
         id="path3-9-0-3" /></clipPath><clipPath
       clipPathUnits="userSpaceOnUse"
       id="clipPath2-4-4"><path
         style="fill:none;stroke:#ff0000;stroke-width:3;stroke-linecap:butt;stroke-linejoin:miter;stroke-dasharray:none;stroke-opacity:1"
         d="m 0.121242,49.272861 c -1.166437,36.250356 -1.4387,59.463569 35.210582,77.473969 36.060851,-16.86887 35.6976,-41.391613 35.204259,-77.390555 -18.445493,0.03402 -35.618268,-9.848769 -35.618268,-9.848769 0,0 -12.591648,9.021468 -34.796573,9.765355 z"
         id="path3-9-9" /></clipPath><linearGradient
       xlink:href="#linearGradient141"
       id="linearGradient27"
       gradientUnits="userSpaceOnUse"
       x1="-18.096495"
       y1="81.973572"
       x2="61.523033"
       y2="81.973572"
       gradientTransform="matrix(6.4954206,0,0,6.4954206,367.71661,862.85065)" /><linearGradient
       xlink:href="#linearGradient23"
       id="linearGradient28"
       gradientUnits="userSpaceOnUse"
       gradientTransform="matrix(24.549621,0,0,24.549621,-1981.2886,-2243.3413)"
       x1="99.945702"
       y1="161.51405"
       x2="114.81397"
       y2="136.88167" /><rect
       x="1303.8376"
       y="1491.7274"
       width="1734.9281"
       height="1293.1431"
       id="rect9" /><filter
       style="color-interpolation-filters:sRGB"
       id="filter9"
       x="-0.012218798"
       y="-0.08446381"
       width="1.0244376"
       height="1.1689276"><feMorphology
         radius="7"
         id="feMorphology9"
         operator="dilate"
         result="result3"
         flood-color="rgb(14,0,87)" /><feFlood
         id="feFlood9"
         result="result2"
         flood-opacity="0.30000000000000004"
         flood-color="rgb(255,0,85)" /><feComposite
         id="feComposite9"
         in2="result3"
         result="result1"
         operator="in"
         in="result2" /><feBlend
         mode="normal"
         id="feBlend9"
         in="SourceGraphic" /></filter><linearGradient
       xlink:href="#linearGradient8"
       id="linearGradient28-6"
       x1="10.872539"
       y1="406.85065"
       x2="6.3741179"
       y2="265.3201"
       gradientUnits="userSpaceOnUse"
       gradientTransform="matrix(1,0,0,2.0000004,378.00544,-468.68911)" /><filter
       style="color-interpolation-filters:sRGB"
       id="filter9-4"
       x="-0.014166547"
       y="-0.10176507"
       width="1.0283331"
       height="1.2035301"><feMorphology
         radius="7"
         id="feMorphology9-0"
         operator="dilate"
         result="result3"
         flood-color="rgb(14,0,87)" /><feFlood
         id="feFlood9-8"
         result="result2"
         flood-opacity="0.30000000000000004"
         flood-color="rgb(255,0,85)" /><feComposite
         id="feComposite9-0"
         in2="result3"
         result="result1"
         operator="in"
         in="result2" /><feBlend
         mode="normal"
         id="feBlend9-8"
         in="SourceGraphic" /></filter><linearGradient
       xlink:href="#linearGradient3"
       id="linearGradient4"
       x1="-243.61388"
       y1="651.4635"
       x2="-190.76347"
       y2="644.20361"
       gradientUnits="userSpaceOnUse" /><filter
       style="color-interpolation-filters:sRGB"
       id="filter9-1"
       x="-0.072309265"
       y="-0.10338273"
       width="1.1446185"
       height="1.2067655"><feMorphology
         radius="7"
         id="feMorphology9-1"
         operator="dilate"
         result="result3"
         flood-color="rgb(14,0,87)" /><feFlood
         id="feFlood9-85"
         result="result2"
         flood-opacity="0.30000000000000004"
         flood-color="rgb(255,0,85)" /><feComposite
         id="feComposite9-7"
         in2="result3"
         result="result1"
         operator="in"
         in="result2" /><feBlend
         mode="normal"
         id="feBlend9-85"
         in="SourceGraphic" /></filter><filter
       style="color-interpolation-filters:sRGB"
       id="filter9-4-6"
       x="-0.018098625"
       y="-0.048019935"
       width="1.0361972"
       height="1.0960399"><feMorphology
         radius="7"
         id="feMorphology9-0-0"
         operator="dilate"
         result="result3"
         flood-color="rgb(14,0,87)" /><feFlood
         id="feFlood9-8-6"
         result="result2"
         flood-opacity="0.30000000000000004"
         flood-color="rgb(255,0,85)" /><feComposite
         id="feComposite9-0-9"
         in2="result3"
         result="result1"
         operator="in"
         in="result2" /><feBlend
         mode="normal"
         id="feBlend9-8-6"
         in="SourceGraphic" /></filter><filter
       style="color-interpolation-filters:sRGB"
       id="filter9-4-6-6"
       x="-0.010932306"
       y="-0.10176507"
       width="1.0218646"
       height="1.2035301"><feMorphology
         radius="7"
         id="feMorphology9-0-0-0"
         operator="dilate"
         result="result3"
         flood-color="rgb(14,0,87)" /><feFlood
         id="feFlood9-8-6-5"
         result="result2"
         flood-opacity="0.30000000000000004"
         flood-color="rgb(255,0,85)" /><feComposite
         id="feComposite9-0-9-5"
         in2="result3"
         result="result1"
         operator="in"
         in="result2" /><feBlend
         mode="normal"
         id="feBlend9-8-6-3"
         in="SourceGraphic" /></filter><linearGradient
       xlink:href="#linearGradient3"
       id="linearGradient2"
       x1="-237.56277"
       y1="652.28156"
       x2="-190.76395"
       y2="639.77765"
       gradientUnits="userSpaceOnUse" /><linearGradient
       xlink:href="#linearGradient3"
       id="linearGradient6"
       x1="-94.202026"
       y1="660.42682"
       x2="-96.749687"
       y2="643.11047"
       gradientUnits="userSpaceOnUse" /><linearGradient
       xlink:href="#linearGradient8"
       id="linearGradient5"
       x1="12.288939"
       y1="2.7978017"
       x2="2.091346"
       y2="13.25088"
       gradientUnits="userSpaceOnUse" /><linearGradient
       xlink:href="#linearGradient3"
       id="linearGradient9"
       x1="223.55339"
       y1="-145.1308"
       x2="205.5737"
       y2="-240.35835"
       gradientUnits="userSpaceOnUse" /></defs><g
     id="layer1"><g
       id="g13"
       transform="matrix(0.26458333,0,0,0.26458333,-33.235174,64.456018)"><path
         id="path13"
         style="opacity:1;fill:#4d4d4d;fill-opacity:1;stroke-width:0.998635"
         d="m 189.44713,-243.61328 c -9.47809,0.0251 -17.97638,2.11732 -25.95299,8.56836 -8.00708,6.47565 -19.16177,9.0694 -29.69336,8.52539 -1.86992,25.22841 3.57078,48.65347 13.82617,67.98828 8.64057,-4.93372 15.60606,-10.65862 21.70117,-16.76563 -2.56302,-3.89766 -3.93088,-8.45738 -3.93555,-13.12109 4e-4,-13.22132 10.82256,-23.9215 24.05456,-23.92188 0.0726,5e-5 -0.0725,-7e-4 0,0 v -31.27345 z m -8.15701,77.76562 c -7.26559,7.89649 -15.15564,15.05024 -25.18555,20.85352 8.34823,11.33876 18.61523,21.0656 29.97719,27.59959 1.13487,0.62946 2.15018,1.29512 3.36537,1.78136 v -48.81628 c -0.073,6.4e-4 0.0732,0.008 0,0.008 -2.73324,-0.0198 -5.58827,-0.50126 -8.15708,-1.42578 z" /><path
         id="path10"
         style="opacity:1;fill:url(#linearGradient9);fill-opacity:1;stroke-width:1.0037"
         d="m 189.44713,-243.61328 v 31.27343 c 3.21698,0.0448 6.50585,0.74332 9.45131,2.04297 6.74453,-7.46305 14.39597,-14.45565 24.2832,-20.1875 0.1032,0.0471 0.209,0.0847 0.3125,0.13086 -2.81432,-1.25495 -5.45688,-2.81979 -7.82031,-4.73047 -7.99179,-6.46078 -16.73056,-8.50405 -26.2267,-8.52929 z m 50.09388,17.0039 c 0.53895,0.031 1.10763,0.10064 1.62891,0.11328 -12.79339,8.34144 -22.59182,17.44058 -30.97266,26.51172 1.97022,3.55166 3.00524,7.5459 3.00782,11.60742 6.7e-4,13.12734 -10.67103,23.77573 -23.75795,23.94532 v 48.81845 c 1.22,-0.49175 2.5063,-1.14368 3.64536,-1.78113 32.69108,-18.96856 55.92235,-60.7207 52.33141,-109.1506 -1.94811,0.10059 -3.91591,0.0539 -5.88282,-0.0645 z" /><path
         d="m 202.75425,-197.09086 -10.85393,5.6901 10.85393,5.72298 -2.49969,4.63759 -10.95261,-6.05189 v 11.31441 h -5.59142 v -11.31441 l -10.98551,6.05189 -2.49969,-4.63759 10.9855,-5.72298 -10.9855,-5.6901 2.49969,-4.63759 10.98551,5.98611 v -11.31441 h 5.59142 v 11.31441 l 10.95261,-5.98611 z"
         id="text1"
         style="font-weight:bold;font-size:67.3602px;line-height:1.25;-inkscape-font-specification:'sans-serif Bold';text-align:center;text-anchor:middle;display:none;fill:#10bed8;stroke-width:1.69535"
         transform="scale(1.0164556,0.98381081)"
         aria-label="*" /></g></g><path
     d="m 16.933332,12.339777 c -0.448444,-0.747406 -1.195848,-1.270589 -2.092734,-1.270589 -1.270589,0 -2.242216,0.971627 -2.242216,2.242216 0,2.466437 1.345329,2.840139 4.33495,5.680279 2.98962,-2.84014 4.33495,-3.213842 4.33495,-5.680279 0,-1.270589 -0.971627,-2.242216 -2.242215,-2.242216 -0.896887,0 -1.644292,0.523183 -2.092735,1.270589 z"
     id="path4"
     style="fill:#10bed8;fill-opacity:1;stroke-width:0.0747404" /></svg>
