<?xml version="1.0" encoding="UTF-8" standalone="no"?>
<!-- Created with Inkscape (http://www.inkscape.org/) -->

<svg
   width="60.5471mm"
   height="16.258553mm"
   viewBox="0 0 60.5471 16.258553"
   version="1.1"
   id="svg1"
   xmlns="http://www.w3.org/2000/svg"
   xmlns:svg="http://www.w3.org/2000/svg">
  <defs
     id="defs1" />
  <g
     id="layer1"
     transform="translate(3.175,3.1750042)">
    <g
       id="g2"
       transform="matrix(0.46224151,0,0,0.46224151,-123.70169,-668.5436)">
      <g
         id="g12-8-9-7-0"
         transform="translate(523.47662,958.8865)">
        <g
           id="g8-6-4-0-4-3-7-4-3-6"
           transform="translate(-288.24207,484.43047)">
          <g
             id="g7-4-9-9-7-6-1-4-3-2-9-8"
             transform="matrix(1.0677321,0,0,1.0677321,52.561047,-0.99676758)">
            <g
               id="g85805-2-0-6-90-0-5-1-3-7-0-1-0-0-7"
               transform="matrix(0.20338107,0,0,0.20338107,-81.088551,456.56076)" />
            <g
               id="g878-2-4-0-1-8-5-3-0-6-7-9"
               style="display:inline"
               transform="translate(-23.902602,-1.2651681)">
              <path
                 d="M 5,24.892514 V 5.183543 h 5.345959 c 1.437825,0 2.482559,0.35179 3.134175,1.055423 0.648546,0.703633 0.97282,1.85084 0.97282,3.441594 v 0 0.871881 c 0,1.881426 -0.673021,3.005694 -2.019062,3.372803 v 0 c 0.825976,0.214154 1.407213,0.711253 1.743736,1.491377 0.336524,0.780071 0.504772,1.812554 0.504772,3.097424 v 0 c 0,2.095553 -0.313557,3.681756 -0.940699,4.75861 -0.627142,1.079897 -1.759056,1.619859 -3.395742,1.619859 v 0 z M 8.854609,12.594496 h 0.803037 c 0.336523,0 0.565943,-0.126948 0.688313,-0.380895 0.12237,-0.250825 0.183568,-0.60571 0.183568,-1.064577 v 0 -1.973236 c 0,-0.642435 -0.282972,-0.963639 -0.848942,-0.963639 v 0 H 8.854609 Z m 0.390048,8.833484 c 1.024837,0 1.537256,-0.489479 1.537256,-1.468437 v 0 -2.455016 c 0,-0.596556 -0.08721,-1.047776 -0.261567,-1.353714 -0.17743,-0.305938 -0.487945,-0.458867 -0.931545,-0.458867 v 0 H 8.854609 v 5.713042 z m 25.500862,3.464537 H 15.990209 V 5.183543 h 3.946393 v 16.359134 h 14.808917 z"
                 style="fill:#f2f2f2;fill-opacity:1;stroke-width:0.264583"
                 id="path82406-4-4-1-09-0-8-4-5-5-9-5-0-5-2-0" />
              <path
                 d="m 41.670058,25.076082 c -1.437825,0 -2.588101,-0.451247 -3.450801,-1.353714 -0.865743,-0.902468 -1.298628,-2.141432 -1.298628,-3.71692 v 0 -9.085871 c 0,-1.95789 0.390049,-3.433974 1.170146,-4.428199 0.780098,-0.994251 2.003795,-1.491376 3.671041,-1.491376 v 0 c 1.453144,0 2.623291,0.397695 3.510465,1.193085 0.887174,0.795391 1.330748,1.942597 1.330748,3.441621 v 0 3.395715 H 42.679603 V 10.11654 c 0,-0.56597 -0.06885,-0.956019 -0.206508,-1.170146 -0.137662,-0.214154 -0.374756,-0.32123 -0.711279,-0.32123 v 0 c -0.35179,0 -0.591952,0.122369 -0.720434,0.367109 -0.131551,0.244739 -0.197326,0.604202 -0.197326,1.078362 v 0 9.888908 c 0,0.520065 0.07649,0.89789 0.229446,1.133449 0.152956,0.238627 0.382403,0.357928 0.688314,0.357928 v 0 c 0.611849,0 0.917787,-0.497126 0.917787,-1.491377 v 0 -3.556317 h 3.969305 v 3.716919 c 0,3.303958 -1.659599,4.955937 -4.97885,4.955937 z M 51.880197,24.89254 H 47.956744 V 5.183543 h 3.900513 v 7.892785 l 1.835521,-7.892785 h 3.969332 l -2.20263,9.017053 2.661523,10.691944 h -4.084055 l -2.156751,-9.544764 z"
                 style="fill:#f2f2f2;fill-opacity:1;stroke-width:0.264583"
                 id="path82830-5-6-9-1-5-8-9-6-6-8-5-9-7-3" />
              <g
                 id="g88011-8-1-9-1-7-7-1-2-5-0-5-2-3"
                 transform="matrix(0.26458333,0,0,0.26458333,-171.23625,693.3728)"
                 style="fill:#000080;fill-opacity:1" />
              <g
                 id="g622001-9-5-1-7-7-7-9-8-9-8-6-9-3"
                 transform="matrix(0.19711126,0,0,0.19711126,-554.28769,1077.9085)"
                 style="stroke-width:1.34231">
                <text
                   xml:space="preserve"
                   style="font-style:normal;font-variant:normal;font-weight:bold;font-stretch:normal;font-size:53.3333px;line-height:1.25;font-family:sans-serif;-inkscape-font-specification:'sans-serif Bold';text-align:center;text-anchor:middle;display:none;fill:#1a1a1a;fill-opacity:1;stroke:none;stroke-width:1.34231"
                   x="2954.594"
                   y="-5378.2959"
                   id="text164075-6-5-3-7-0-2-3-8-5-8-0-1-0-7"
                   transform="translate(-2.0134992e-5,3.9070021e-5)"><tspan
                     id="tspan164073-3-2-3-3-9-26-6-4-7-0-1-1-5-3"
                     x="2954.594"
                     y="-5378.2959"
                     style="fill:#1a1a1a;fill-opacity:1;stroke-width:1.34231">*</tspan></text>
              </g>
            </g>
          </g>
        </g>
        <g
           id="g11-7-4-0-2"
           transform="matrix(0.71506211,0,0,0.68358885,-159.46716,48.753432)">
          <path
             d="m -100.70606,666.57549 c 1.288101,-0.6269 2.431624,-1.51463 3.460937,-2.5039 5.14185,-4.94609 7.15881,-11.62412 6.792969,-18.78906 0,0 -0.482351,-0.0282 -0.779297,0.0449 l -5.425781,5.42578 c 0.527873,1.07048 0.583052,2.35421 0.179688,3.47461 -0.584888,1.79 -2.401589,2.93113 -4.228516,2.96289 z"
             style="fill:#f2163e;fill-opacity:1"
             id="path3-6-9-5-7-8-9-3-4-6" />
          <path
             d="m -100.70606,648.22198 c 0.67423,-0.0107 1.349297,0.11775 1.966797,0.4043 l 4.116159,-4.08781 c 0,0 -1.434628,-0.88201 -2.126993,-1.42862 -0.692364,-0.54661 -2.108615,-1.12852 -3.840733,-1.09881 -0.0387,-0.003 -0.0766,10e-6 -0.11523,-0.002 z"
             style="fill:#f2163e;fill-opacity:1"
             id="path2-6-1-0-6-13-1-7-1-5" />
          <path
             id="path4-4-7-9-3-6-0-2-7-26"
             d="m -100.70606,648.22198 v -6.21484 c -1.75095,-0.0892 -3.40561,0.66841 -4.79102,1.68554 -1.49768,1.26807 -3.50768,1.73908 -5.43554,1.63477 -0.31276,4.25551 0.46556,8.59309 2.28711,12.45508 l 0.24218,0.51562 3.64258,-3.64062 c -0.63246,-1.31945 -0.56889,-2.94676 0.16407,-4.21289 0.77271,-1.40831 2.32607,-2.19783 3.89062,-2.22266 z m 0,18.35351 v -9.38476 c -0.67082,0.0117 -1.34375,-0.12125 -1.95703,-0.43359 l -4.18945,4.18945 c 1.47295,2.08642 3.28581,3.97636 5.49023,5.29297 0.20821,0.1221 0.4137,0.25154 0.63672,0.3457 0.007,-0.003 0.013,-0.007 0.0195,-0.01 z"
             style="fill:#999999;fill-opacity:1" />
          <text
             xml:space="preserve"
             style="font-style:normal;font-variant:normal;font-weight:bold;font-stretch:normal;font-size:11.2246px;line-height:1.25;font-family:sans-serif;-inkscape-font-specification:'sans-serif Bold';text-align:center;text-anchor:middle;display:inline;fill:#10bed8;fill-opacity:1;stroke:none;stroke-width:0.282505"
             x="-100.70671"
             y="658.48364"
             id="text164075-6-5-3-7-0-6-1-5-8-4-2-3-7-9-5"><tspan
               id="tspan164073-3-2-3-3-9-2-0-6-1-1-4-5-3-3-8"
               x="-100.70671"
               y="658.48364"
               style="fill:#10bed8;fill-opacity:1;stroke-width:0.282505">*</tspan></text>
        </g>
      </g>
      <g
         id="g13-3-6-7"
         transform="translate(575.62463,806.72629)">
        <path
           d="m -242.11937,661.01759 c -1.91086,0 -3.29092,-0.47364 -4.14019,-1.42091 -0.84929,-0.94726 -1.27392,-2.47431 -1.27392,-4.58114 v 0 -2.05785 h 4.14018 v 2.6213 c 0,1.04524 0.33483,1.56787 1.00445,1.56787 v 0 c 0.37564,0 0.63693,-0.11105 0.78392,-0.33316 0.14698,-0.21885 0.22049,-0.58958 0.22049,-1.11221 v 0 c 0,-0.68595 -0.0817,-1.25432 -0.24499,-1.70509 -0.16331,-0.44748 -0.37234,-0.82313 -0.62713,-1.1269 -0.25151,-0.3005 -0.70391,-0.76923 -1.3572,-1.4062 v 0 l -1.81286,-1.81285 c -1.40458,-1.3719 -2.10686,-2.89078 -2.10686,-4.55665 v 0 c 0,-1.79653 0.41158,-3.16518 1.23471,-4.10589 0.82641,-0.93746 2.03172,-1.40619 3.61594,-1.40619 v 0 c 1.8945,0 3.25824,0.50139 4.09117,1.50416 0.83294,1.00606 1.2494,2.57884 1.2494,4.71836 v 0 h -4.28717 l -0.0246,-1.44541 c 0,-0.27764 -0.0784,-0.49814 -0.23519,-0.66145 -0.15351,-0.16332 -0.36909,-0.24496 -0.64674,-0.24496 v 0 c -0.32666,0 -0.57164,0.0898 -0.73496,0.26948 -0.16331,0.17964 -0.24496,0.42463 -0.24496,0.73493 v 0 c 0,0.68595 0.39198,1.39642 1.1759,2.13136 v 0 l 2.44982,2.35181 c 0.57162,0.55529 1.04523,1.08118 1.42088,1.57768 0.37564,0.49978 0.67778,1.08772 0.90644,1.76387 0.22863,0.67939 0.34296,1.48459 0.34296,2.41552 v 0 c 0,2.07417 -0.38053,3.64532 -1.1416,4.71344 -0.75781,1.0714 -2.01047,1.60708 -3.75801,1.60708 z m 10.09322,-0.196 h -3.7972 v -21.0439 h 6.4185 l 1.76387,12.83702 1.76387,-12.83702 h 6.46751 v 21.0439 h -3.84621 v -15.16434 l -2.42533,15.16434 h -3.7727 l -2.57231,-15.16434 z"
           style="display:inline;fill:#f2163e;fill-opacity:1;stroke-width:0.489964"
           id="path83239-1-1-3-6-2-1-7-1-1-0-3-9-2-9" />
        <path
           d="m -212.51788,660.82159 h -4.06668 v -21.0439 h 4.06668 z m 7.71692,0 h -4.21367 v -17.00172 h -2.4988 v -4.04218 h 9.2113 v 4.04218 h -2.49883 z m 7.86392,0 h -4.1892 v -21.0439 h 4.1892 v 7.52094 h 1.98434 v -7.52094 h 4.1892 v 21.0439 h -4.1892 v -9.55426 h -1.98434 z"
           style="display:inline;fill:#f2163e;fill-opacity:1;stroke-width:0.489964"
           id="path83942-6-3-4-2-9-72-6-5-7-9-1-2-1-6" />
      </g>
    </g>
  </g>
</svg>
