<?xml version="1.0" encoding="UTF-8" standalone="no"?>
<!-- Created with Inkscape (http://www.inkscape.org/) -->

<svg
   version="1.1"
   id="svg1"
   width="1344"
   height="768"
   viewBox="0 0 1344 768"
   xml:space="preserve"
   xmlns:xlink="http://www.w3.org/1999/xlink"
   xmlns="http://www.w3.org/2000/svg"
   xmlns:svg="http://www.w3.org/2000/svg"><defs
     id="defs1"><rect
       x="86.183311"
       y="435.96994"
       width="31.013926"
       height="23.322407"
       id="rect3" /><linearGradient
       id="linearGradient11"><stop
         style="stop-color:#00ddff;stop-opacity:1;"
         offset="0"
         id="stop8" /><stop
         style="stop-color:#ffffff;stop-opacity:1;"
         offset="1"
         id="stop11" /></linearGradient><linearGradient
       id="linearGradient9"><stop
         style="stop-color:#ff0055;stop-opacity:1;"
         offset="0"
         id="stop9" /><stop
         style="stop-color:#0095ff;stop-opacity:1;"
         offset="1"
         id="stop10" /></linearGradient><rect
       x="24.773493"
       y="-252.12579"
       width="1106.4851"
       height="1387.6099"
       id="rect9" /><rect
       x="-114.95695"
       y="-274.15768"
       width="1190.0809"
       height="1477.9551"
       id="rect8" /><filter
       style="color-interpolation-filters:sRGB"
       id="filter12"
       x="-0.012936911"
       y="-0.056929901"
       width="1.033061"
       height="1.1454875"><feFlood
         result="flood"
         in="SourceGraphic"
         flood-opacity="0.600000"
         flood-color="rgb(255,255,255)"
         id="feFlood11" /><feGaussianBlur
         result="blur"
         in="SourceGraphic"
         stdDeviation="3.000000"
         id="feGaussianBlur11" /><feOffset
         result="offset"
         in="blur"
         dx="4.000000"
         dy="4.000000"
         id="feOffset11" /><feComposite
         result="comp1"
         operator="in"
         in="flood"
         in2="offset"
         id="feComposite11" /><feComposite
         result="comp2"
         operator="over"
         in="SourceGraphic"
         in2="comp1"
         id="feComposite12" /></filter><linearGradient
       xlink:href="#linearGradient9"
       id="linearGradient10"
       x1="373.69559"
       y1="482.7287"
       x2="489.24936"
       y2="902.83929"
       gradientUnits="userSpaceOnUse" /><linearGradient
       id="linearGradient1"><stop
         style="stop-color:#f2163b;stop-opacity:1;"
         offset="0"
         id="stop1" /><stop
         style="stop-color:#f2165f;stop-opacity:1;"
         offset="1"
         id="stop2" /></linearGradient><linearGradient
       xlink:href="#linearGradient1"
       id="linearGradient2"
       x1="-237.56302"
       y1="652.28168"
       x2="-190.76326"
       y2="639.77734"
       gradientUnits="userSpaceOnUse" /><linearGradient
       xlink:href="#linearGradient1"
       id="linearGradient4"
       x1="-93.634804"
       y1="659.51849"
       x2="-94.622429"
       y2="644.53772"
       gradientUnits="userSpaceOnUse" /><linearGradient
       xlink:href="#linearGradient9"
       id="linearGradient3"
       gradientUnits="userSpaceOnUse"
       x1="291.12567"
       y1="488.659"
       x2="489.24936"
       y2="902.83929"
       gradientTransform="matrix(0.42307917,0,0,0.42307917,296.52689,397.4394)" /><filter
       style="color-interpolation-filters:sRGB"
       id="filter10"
       x="0"
       y="0"
       width="1.0035853"
       height="1.0460235"><feFlood
         result="flood"
         in="SourceGraphic"
         flood-opacity="1"
         flood-color="rgb(0,0,0)"
         id="feFlood9" /><feGaussianBlur
         result="blur"
         in="SourceGraphic"
         stdDeviation="0"
         id="feGaussianBlur9" /><feOffset
         result="offset"
         in="blur"
         dx="1"
         dy="3"
         id="feOffset9" /><feComposite
         result="comp1"
         operator="in"
         in="flood"
         in2="offset"
         id="feComposite9" /><feComposite
         result="comp2"
         operator="over"
         in="SourceGraphic"
         in2="comp1"
         id="feComposite10" /></filter><linearGradient
       xlink:href="#linearGradient1"
       id="linearGradient6"
       x1="356.05835"
       y1="131.38138"
       x2="711.64233"
       y2="131.38138"
       gradientUnits="userSpaceOnUse" /><linearGradient
       xlink:href="#linearGradient11"
       id="linearGradient8"
       x1="-385.54062"
       y1="-147.7545"
       x2="806.72217"
       y2="489.95587"
       gradientUnits="userSpaceOnUse" /></defs><image
     width="1344"
     height="768"
     preserveAspectRatio="none"
     xlink:href="../images/hero-jemuf.png"
     id="image1"
     x="0"
     y="0" /><rect
     style="opacity:0.1;fill:#000000;stroke-width:1.28934"
     id="rect1"
     width="1292.0383"
     height="581.60382"
     x="25.980835"
     y="169.39449" /><text
     xml:space="preserve"
     style="font-style:normal;font-variant:normal;font-weight:normal;font-stretch:normal;font-size:74.6667px;font-family:Anton;-inkscape-font-specification:'Anton, Normal';font-variant-ligatures:normal;font-variant-caps:normal;font-variant-numeric:normal;font-variant-east-asian:normal;text-align:center;text-anchor:middle;fill:url(#linearGradient6);filter:url(#filter10)"
     id="text1"
     transform="translate(12.749224,49.12729)"><textPath
       xlink:href="#path1"
       startOffset="50%"
       id="textPath1"
       style="font-style:normal;font-variant:normal;font-weight:normal;font-stretch:normal;font-size:74.6667px;font-family:Anton;-inkscape-font-specification:'Anton, Normal';font-variant-ligatures:normal;font-variant-caps:normal;font-variant-numeric:normal;font-variant-east-asian:normal;fill:url(#linearGradient6)">The conscious openBot:</textPath></text><path
     style="display:none;fill:none;stroke:#808080"
     d="m 13.982422,131.02612 c 0,0 310.602588,-93.484424 675.673318,-93.484424 365.07076,0 640.34516,93.484424 640.34516,93.484424"
     id="path1" /><text
     xml:space="preserve"
     style="font-variant:normal;font-weight:normal;font-stretch:normal;font-size:42.3296px;font-family:Lovea;-inkscape-font-specification:'Lovea, Normal';font-variant-ligatures:normal;font-variant-caps:normal;font-variant-numeric:normal;font-variant-east-asian:normal;text-align:center;text-anchor:middle;fill:none;stroke:#808080;stroke-width:0.566914"
     x="1217.594"
     y="730.79297"
     id="text2"><tspan
       id="tspan2"
       x="1217.594"
       y="730.79297"
       style="stroke-width:0.566914">~Michel</tspan></text><text
     xml:space="preserve"
     style="font-style:normal;font-variant:normal;font-weight:normal;font-stretch:normal;font-size:74.6667px;font-family:Anton;-inkscape-font-specification:'Anton, Normal';font-variant-ligatures:normal;font-variant-caps:normal;font-variant-numeric:normal;font-variant-east-asian:normal;text-align:center;white-space:pre;shape-inside:url(#rect1);display:inline;fill:url(#linearGradient8);fill-opacity:1;filter:url(#filter10)"
     x="513.11993"
     y="467.09412"
     id="title"
     transform="translate(13.337855,329.12728)"><tspan
       x="55.105266"
       y="236.64928"
       id="tspan3">Guarding the Signal, Erasing the Material.</tspan></text><g
     id="logo"
     transform="matrix(5.0250543,0,0,5.0250543,-969.9034,-6644.7645)"><g
       id="g12-8-9-7-0"
       transform="translate(523.47662,958.8865)"><g
         id="g8-6-4-0-4-3-7-4-3-6"
         transform="translate(-288.24207,484.43047)"><g
           id="g7-4-9-9-7-6-1-4-3-2-9-8"
           transform="matrix(1.0677321,0,0,1.0677321,52.561047,-0.99676758)"><g
             id="g85805-2-0-6-90-0-5-1-3-7-0-1-0-0-7"
             transform="matrix(0.20338107,0,0,0.20338107,-81.088551,456.56076)" /><g
             id="g878-2-4-0-1-8-5-3-0-6-7-9"
             style="display:inline"
             transform="translate(-23.902602,-1.2651681)"><path
               id="path82406-4-4-1-09-0-8-4-5-5-9-5-0-5-2-0"
               style="fill:#feffff;fill-opacity:1;stroke-width:0.264583"
               d="m 41.761929,5.0000409 c -1.667245,0 -2.89106,0.4971459 -3.671157,1.4913959 -0.780096,0.994224 -1.169965,2.4704329 -1.169965,4.4283212 v 9.085611 c 0,1.575487 0.432723,2.814556 1.298465,3.717023 0.862699,0.902466 2.0131,1.353796 3.450923,1.353796 3.319248,0 4.978722,-1.652197 4.978722,-4.956152 v -3.716659 h -3.96929 v 3.556126 c 0,0.99425 -0.30585,1.491395 -0.917698,1.491395 -0.305911,0 -0.535409,-0.119206 -0.688365,-0.357833 -0.152956,-0.235558 -0.229333,-0.613498 -0.229333,-1.133562 v -9.889007 c 0,-0.4741598 0.06575,-0.8334931 0.197299,-1.0782318 0.128482,-0.2447398 0.368609,-0.3669336 0.720399,-0.3669336 0.336522,0 0.573636,0.1069131 0.711298,0.3210669 0.137657,0.2141268 0.2064,0.6039955 0.2064,1.1699645 v 2.913992 H 46.60305 V 9.6347621 c 0,-1.4990226 -0.443689,-2.6464327 -1.330862,-3.4418229 C 44.385014,5.39755 43.215071,5.0000409 41.761929,5.0000409 Z M 5.00013,5.1835077 V 24.892357 h 5.345655 c 1.636684,0 2.768815,-0.539635 3.395956,-1.619531 0.627142,-1.076853 0.940632,-2.663302 0.940632,-4.758853 0,-1.284868 -0.168374,-2.317388 -0.504898,-3.097458 -0.336523,-0.780123 -0.917688,-1.277242 -1.743663,-1.491396 1.34604,-0.367109 2.019227,-1.491235 2.019227,-3.372659 V 9.6806288 c 0,-1.5907525 -0.324484,-2.7381906 -0.973029,-3.4418229 C 12.828394,5.5351736 11.783609,5.1835077 10.345785,5.1835077 Z m 10.990172,0 V 24.892357 H 34.745415 V 21.542632 H 19.936658 V 5.1835077 Z m 31.966544,0 V 24.892721 h 3.923423 v -9.545006 l 2.156827,9.545006 h 4.083957 L 55.459328,14.200683 57.662022,5.1835077 h -3.96929 L 51.857336,13.076221 V 5.1835077 Z M 8.8547532,8.2121662 h 0.8259647 c 0.5659691,0 0.8488981,0.3211304 0.8488981,0.9635648 v 1.97336 c 0,0.458867 -0.06146,0.813574 -0.183831,1.064399 -0.12237,0.253947 -0.3514778,0.38113 -0.6880005,0.38113 H 8.8547532 Z m 0,7.4799128 h 0.7338672 c 0.4435996,0 0.7544656,0.152729 0.9318946,0.458667 0.174357,0.305938 0.261368,0.75724 0.261368,1.353796 v 2.454961 c 0,0.978957 -0.512427,1.468462 -1.5372628,1.468462 l -0.389867,-0.02293 z" /><g
               id="g88011-8-1-9-1-7-7-1-2-5-0-5-2-3"
               transform="matrix(0.26458333,0,0,0.26458333,-171.23625,693.3728)"
               style="fill:#000080;fill-opacity:1" /><g
               id="g622001-9-5-1-7-7-7-9-8-9-8-6-9-3"
               transform="matrix(0.19711126,0,0,0.19711126,-554.28769,1077.9085)"
               style="stroke-width:1.34231"><text
                 xml:space="preserve"
                 style="font-style:normal;font-variant:normal;font-weight:bold;font-stretch:normal;font-size:53.3333px;line-height:1.25;font-family:sans-serif;-inkscape-font-specification:'sans-serif Bold';text-align:center;text-anchor:middle;display:none;fill:#1a1a1a;fill-opacity:1;stroke:none;stroke-width:1.34231"
                 x="2954.594"
                 y="-5378.2959"
                 id="text164075-6-5-3-7-0-2-3-8-5-8-0-1-0-7"
                 transform="translate(-2.0134992e-5,3.9070021e-5)"><tspan
                   id="tspan164073-3-2-3-3-9-26-6-4-7-0-1-1-5-3"
                   x="2954.594"
                   y="-5378.2959"
                   style="fill:#1a1a1a;fill-opacity:1;stroke-width:1.34231">*</tspan></text></g></g></g></g><g
         id="g11-7-4-0-2"
         transform="matrix(0.71506211,0,0,0.68358885,-159.46716,48.753432)"><path
           id="path3-6-9-5-7-8-9-3-4-6"
           style="fill:url(#linearGradient4);fill-opacity:1"
           d="m -100.70575,642.00933 v 6.21295 c 0.67423,-0.0107 1.349299,0.1174 1.966799,0.40395 l 4.116524,-4.08854 c 0,0 -1.435471,-0.88111 -2.127835,-1.42772 -0.692363,-0.54661 -2.10768,-1.12871 -3.839798,-1.099 -0.0387,-0.003 -0.0771,3.7e-4 -0.11569,-0.002 z m 9.974713,3.26757 c -0.157706,0.002 -0.351827,0.0142 -0.5003,0.0507 l -5.425119,5.42631 c 0.527873,1.07048 0.581595,2.35323 0.178232,3.47363 -0.584888,1.78999 -2.400603,2.93161 -4.227526,2.96337 v 9.38403 c 1.288097,-0.6269 2.430567,-1.51456 3.459879,-2.50383 5.141845,-4.94608 7.158966,-11.62437 6.793125,-18.78931 0,0 -0.120586,-0.007 -0.278291,-0.005 z" /><path
           id="path4-4-7-9-3-6-0-2-7-26"
           d="m -100.70606,648.22198 v -6.21484 c -1.75095,-0.0892 -3.40561,0.66841 -4.79102,1.68554 -1.49768,1.26807 -3.50768,1.73908 -5.43554,1.63477 -0.31276,4.25551 0.46556,8.59309 2.28711,12.45508 l 0.24218,0.51562 3.64258,-3.64062 c -0.63246,-1.31945 -0.56889,-2.94676 0.16407,-4.21289 0.77271,-1.40831 2.32607,-2.19783 3.89062,-2.22266 z m 0,18.35351 v -9.38476 c -0.67082,0.0117 -1.34375,-0.12125 -1.95703,-0.43359 l -4.18945,4.18945 c 1.47295,2.08642 3.28581,3.97636 5.49023,5.29297 0.20821,0.1221 0.4137,0.25154 0.63672,0.3457 0.007,-0.003 0.013,-0.007 0.0195,-0.01 z"
           style="fill:#4d4d4d;fill-opacity:1" /><path
           d="m -97.996474,651.81356 -1.808652,0.94817 1.808652,0.95365 -0.416538,0.77279 -1.825098,-1.00846 v 1.88538 h -0.93173 v -1.88538 l -1.83057,1.00846 -0.41654,-0.77279 1.83058,-0.95365 -1.83058,-0.94817 0.41654,-0.77279 1.83057,0.9975 v -1.88539 h 0.93173 v 1.88539 l 1.825098,-0.9975 z"
           id="text164075-6-5-3-7-0-6-1-5-8-4-2-3-7-9-5"
           style="font-weight:bold;font-size:11.2246px;line-height:1.25;-inkscape-font-specification:'sans-serif Bold';text-align:center;text-anchor:middle;fill:#10bed8;stroke-width:0.282505"
           aria-label="*" /></g></g><g
       id="g13-3-6-7"
       transform="translate(575.62463,806.72629)"><path
         id="path83239-1-1-3-6-2-1-7-1-1-0-3-9-2-9"
         style="display:inline;fill:url(#linearGradient2);fill-opacity:1;stroke-width:0.489964"
         d="m -242.68324,639.58171 c -1.58422,0 -2.78905,0.46893 -3.61546,1.40639 -0.82313,0.94071 -1.23422,2.30971 -1.23422,4.10624 0,1.66587 0.70164,3.18376 2.10622,4.55566 l 1.81332,1.81332 c 0.65329,0.63697 1.10569,1.10588 1.3572,1.40638 0.25479,0.30377 0.46386,0.67942 0.62717,1.1269 0.16329,0.45077 0.24483,1.01893 0.24483,1.70488 0,0.52263 -0.0733,0.89351 -0.22024,1.11236 -0.14699,0.22211 -0.40916,0.33315 -0.7848,0.33315 -0.66962,0 -1.00392,-0.52325 -1.00392,-1.56849 v -2.62048 h -4.13978 v 2.05704 c 0,2.10682 0.42406,3.63411 1.27335,4.58137 0.84927,0.94727 2.22892,1.42092 4.13978,1.42092 1.74753,0 3.00075,-0.5351 3.75855,-1.6065 0.76107,-1.06812 1.14143,-2.63912 1.14143,-4.71329 0,-0.93093 -0.11458,-1.73651 -0.34321,-2.4159 -0.22866,-0.67615 -0.53102,-1.26435 -0.90666,-1.76413 -0.37565,-0.4965 -0.8493,-1.02214 -1.42092,-1.57743 l -2.44943,-2.35217 c -0.78392,-0.73494 -1.17609,-1.44487 -1.17609,-2.13082 0,-0.3103 0.0815,-0.55598 0.24483,-0.73562 0.16332,-0.17968 0.40896,-0.26942 0.73562,-0.26942 0.27765,0 0.49266,0.0815 0.64617,0.24483 0.15679,0.16331 0.23589,0.38419 0.23589,0.66183 l 0.0246,1.44551 h 4.28623 c 0,-2.13952 -0.41581,-3.71282 -1.24875,-4.71888 -0.83293,-1.00277 -2.19721,-1.50365 -4.09171,-1.50365 z m 6.85976,0.19565 v 21.04434 h 3.79768 v -15.16391 l 2.57241,15.16391 h 3.77198 l 2.42596,-15.16391 v 15.16391 h 3.84576 v -21.04434 h -6.46736 l -1.76413,12.83745 -1.76413,-12.83745 z m 19.23885,0 v 21.04434 h 4.06712 v -21.04434 z m 5.07104,0 v 4.04251 h 2.49862 v 17.00183 h 4.21357 v -17.00183 h 2.49974 v -4.04251 z m 10.3869,0 v 21.04434 h 4.19009 v -9.55402 h 1.98437 v 9.55402 h 4.18897 v -21.04434 h -4.18897 v 7.52158 h -1.98437 v -7.52158 z" /></g></g></svg>
